<?xml version="1.0" standalone="no"?>
<!DOCTYPE svg PUBLIC "-//W3C//DTD SVG 20010904//EN"
 "http://www.w3.org/TR/2001/REC-SVG-20010904/DTD/svg10.dtd">
<svg version="1.0" xmlns="http://www.w3.org/2000/svg"
 width="360.000000pt" height="360.000000pt" viewBox="0 0 360.000000 360.000000"
 preserveAspectRatio="xMidYMid meet">

<g transform="translate(0.000000,360.000000) scale(0.100000,-0.100000)"
fill="#000000" stroke="none">
<path d="M0 1800 l0 -1800 1800 0 1800 0 0 1800 0 1800 -1800 0 -1800 0 0
-1800z m1705 1256 l113 -35 117 35 c108 33 121 35 166 24 51 -13 75 -30 40
-30 -46 0 -24 -21 92 -89 104 -61 119 -72 99 -78 -22 -5 -14 -15 92 -122 l115
-116 34 -147 c19 -82 31 -148 28 -148 -3 0 -15 12 -28 28 -29 36 -29 23 2
-118 31 -142 31 -147 -4 -108 -16 18 -33 30 -37 25 -4 -4 -13 -81 -19 -172 -6
-90 -14 -167 -16 -170 -3 -3 -14 13 -24 35 -10 22 -21 40 -25 40 -3 0 -35 -72
-71 -160 -35 -88 -66 -160 -69 -160 -3 0 -12 17 -20 37 l-15 37 -175 -163
c-158 -147 -175 -161 -187 -145 -7 10 -13 24 -13 31 0 24 -18 13 -47 -27 -15
-22 -31 -40 -34 -40 -4 0 -19 18 -34 40 -15 22 -31 40 -35 40 -3 0 -13 -14
-21 -32 l-15 -31 -155 143 c-85 79 -164 152 -176 163 l-22 19 -16 -38 -17 -39
-37 90 c-21 50 -51 123 -67 162 -16 40 -32 73 -35 73 -3 0 -16 -19 -29 -42
l-25 -43 -12 174 c-7 96 -15 176 -18 179 -3 3 -21 -10 -41 -29 -28 -26 -35
-29 -30 -14 11 39 56 244 56 257 0 7 -12 0 -26 -16 -14 -15 -26 -27 -28 -25
-2 2 11 69 29 147 l32 144 79 80 c158 161 148 148 130 161 -13 10 3 23 105 82
114 66 120 71 95 79 -35 13 -33 21 12 33 58 16 66 15 187 -21z m-421 -1893
c-15 -21 -49 -66 -76 -100 -26 -35 -48 -67 -48 -72 0 -5 32 -35 72 -65 67 -53
70 -56 41 -56 -36 0 -177 105 -166 123 13 23 127 171 145 189 10 10 28 18 39
18 21 0 20 -1 -7 -37z m1094 -107 c27 -38 30 -45 17 -56 -13 -10 -22 -5 -54
31 -36 39 -38 44 -23 56 24 18 25 17 60 -31z m-993 -1 c17 -13 24 -24 17 -25
-17 0 -62 30 -62 41 0 15 13 10 45 -16z m875 -86 c34 -50 68 -93 76 -96 7 -3
43 16 79 42 62 44 77 45 55 5 -8 -15 -133 -110 -145 -110 -2 0 -35 45 -74 100
-64 91 -89 150 -62 150 5 0 37 -41 71 -91z m-943 21 c18 -14 21 -20 10 -20
-26 0 -47 11 -47 26 0 19 7 18 37 -6z m396 -65 c-8 -50 16 -82 75 -97 l47 -13
-65 -5 c-81 -6 -100 6 -100 64 0 40 21 86 40 86 5 0 6 -16 3 -35z m157 -4 c35
-10 10 -22 -29 -15 -17 4 -31 10 -31 15 0 10 24 10 60 0z m-76 -191 c70 -4 77
-7 62 -19 -20 -17 -101 -26 -150 -17 -33 6 -36 10 -36 41 0 46 32 67 40 27 5
-26 8 -27 84 -32z"/>
<path d="M1587 3052 c7 -4 -35 -34 -108 -77 -66 -38 -118 -74 -115 -81 2 -6
-51 -67 -119 -134 l-124 -124 -21 -89 c-26 -114 -25 -119 11 -77 28 32 30 33
25 10 -3 -14 -17 -76 -31 -139 -32 -144 -32 -151 -1 -122 l24 23 6 -74 c20
-247 21 -255 36 -225 7 15 16 27 19 27 3 0 32 -64 64 -143 69 -170 73 -178 87
-157 5 8 11 20 13 25 2 6 57 -39 121 -100 65 -60 144 -134 177 -163 l58 -53
16 37 c17 42 29 38 66 -22 11 -19 24 -34 27 -34 4 0 21 20 37 45 17 24 33 45
37 45 4 0 15 -16 23 -36 l15 -36 111 103 c226 212 240 223 250 208 5 -8 9 -17
9 -21 0 -32 26 14 80 147 l64 155 22 -27 22 -28 6 130 c4 72 9 145 12 164 l5
33 25 -23 c13 -12 24 -18 24 -11 0 6 -13 70 -30 144 -16 73 -30 136 -30 141 0
5 12 -6 26 -23 15 -17 28 -29 30 -27 3 2 -5 46 -17 98 l-21 94 -123 125 c-67
69 -121 130 -119 135 2 6 -50 41 -116 79 -78 46 -115 73 -107 78 25 16 -19 8
-113 -22 -52 -16 -106 -30 -120 -30 -14 0 -68 14 -120 30 -93 29 -138 38 -113
22z m-182 -541 l-25 -73 23 -28 c12 -15 43 -52 70 -82 45 -53 47 -57 47 -118
0 -54 5 -70 36 -122 23 -37 48 -65 68 -74 30 -15 35 -14 109 20 71 32 77 37
77 65 0 24 -12 39 -70 88 -38 32 -69 65 -69 73 0 8 18 49 39 90 40 77 52 88
25 23 -8 -20 -13 -39 -9 -42 7 -7 181 -7 189 1 3 3 -2 21 -10 41 -27 65 -15
54 25 -23 21 -41 39 -82 39 -90 0 -8 -31 -41 -69 -73 -60 -50 -70 -64 -70 -90
0 -30 4 -34 79 -66 l79 -33 32 18 c17 11 45 42 61 70 23 41 29 63 29 112 0 64
3 70 113 197 l34 39 -23 70 c-14 39 -23 74 -22 78 2 4 20 -29 40 -73 l37 -80
-75 -88 -74 -89 0 -61 c0 -51 -5 -69 -35 -118 -30 -50 -35 -67 -35 -123 0 -64
0 -64 -52 -117 -39 -40 -60 -53 -81 -53 -23 0 -31 -6 -40 -30 -8 -20 -17 -28
-27 -25 -9 3 -22 -7 -33 -27 l-18 -32 -20 34 c-16 25 -23 30 -32 21 -9 -9 -14
-4 -23 21 -8 26 -17 34 -40 36 -19 2 -47 21 -81 55 l-53 51 0 68 c0 60 -4 74
-35 122 -30 48 -35 63 -35 117 l0 62 -75 87 -74 87 37 86 c20 46 38 82 40 78
1 -4 -9 -40 -23 -80z m294 4 c3 -4 -11 -4 -32 0 -23 5 -49 3 -68 -5 -26 -11
-31 -10 -43 5 -10 14 -21 17 -47 12 l-34 -7 40 34 39 33 69 -33 c38 -18 72
-36 76 -39z m431 30 l25 -27 -28 7 c-20 5 -33 2 -47 -10 -15 -13 -22 -14 -40
-5 -13 7 -41 10 -69 6 l-46 -6 75 39 c80 41 89 40 130 -4z"/>
<path d="M1703 2281 c-10 -16 -4 -25 49 -70 33 -28 63 -51 67 -51 5 0 79 59
119 95 2 2 1 13 -3 24 -6 19 -14 20 -113 20 -94 0 -109 -2 -119 -18z"/>
<path d="M1590 1948 c0 -39 5 -49 48 -91 36 -36 55 -47 79 -47 23 0 33 -6 38
-20 4 -11 10 -18 15 -15 5 3 17 -6 26 -20 21 -32 31 -32 46 0 6 14 17 24 24
21 7 -3 14 4 17 15 4 14 14 19 36 19 24 0 44 12 81 46 46 43 50 51 50 91 0 39
-2 44 -17 38 -23 -9 -403 -9 -425 0 -16 6 -18 1 -18 -37z"/>
</g>
</svg>
